<svg width="22" height="30" viewBox="0 0 22 30" fill="none" xmlns="http://www.w3.org/2000/svg">
<path opacity="0.5" fill-rule="evenodd" clip-rule="evenodd" d="M20.614 16.145C19.9432 15.2775 18.9308 14.6817 17.5771 14.3578C19.301 13.4785 20.0586 11.986 19.8506 9.88022C19.7811 9.11662 19.57 8.45482 19.217 7.89386C18.8637 7.33277 18.387 6.88171 17.785 6.54048C17.1835 6.19882 16.5293 5.93873 15.8239 5.75942C15.1184 5.58012 14.3083 5.44992 13.3944 5.36902V0.99585H10.7221V5.24751C10.2594 5.24751 9.5537 5.25906 8.60513 5.28222V0.99585H5.93253V5.36902C5.55064 5.38063 4.98962 5.38652 4.24923 5.38652L0.570312 5.36902V8.21509H2.49644C3.37572 8.21509 3.89055 8.60854 4.04092 9.39512V14.3757C4.15678 14.3757 4.24923 14.3817 4.3187 14.3933H4.04092V21.3692C3.94847 21.9591 3.61302 22.2543 3.03449 22.2543H1.10848L0.570434 25.4301H4.04123C4.26108 25.4301 4.57903 25.433 4.99569 25.4383C5.41211 25.4441 5.72435 25.447 5.93265 25.447V29.8721H8.60568V25.499C9.09145 25.5109 9.79713 25.5165 10.7227 25.5165V29.8721H13.395V25.447C14.3438 25.4008 15.1854 25.3145 15.9197 25.1868C16.6544 25.0591 17.3574 24.8599 18.0283 24.5878C18.6991 24.3161 19.2601 23.9775 19.7112 23.5725C20.1626 23.168 20.5354 22.6529 20.8309 22.0281C21.1254 21.4032 21.3137 20.6802 21.3944 19.8586C21.5455 18.2509 21.285 17.0129 20.614 16.145ZM8.6571 8.40546H8.65728V13.733C8.71527 13.733 8.91457 13.736 9.25605 13.7417C9.59746 13.7474 9.86637 13.7474 10.0631 13.7417C10.2597 13.736 10.549 13.7242 10.9309 13.707C11.3127 13.6897 11.6308 13.6578 11.8854 13.6115C12.1397 13.5653 12.4376 13.5016 12.7788 13.4206C13.1199 13.3397 13.4007 13.2326 13.6203 13.0997C13.8402 12.9668 14.0546 12.8104 14.2627 12.6311C14.4707 12.4517 14.6273 12.229 14.7311 11.9629C14.8351 11.6967 14.887 11.4016 14.887 11.0776C14.887 10.6959 14.8147 10.3575 14.6699 10.0626C14.5256 9.76753 14.3492 9.52446 14.1408 9.33361C13.9328 9.14275 13.6553 8.98071 13.3079 8.84777C12.9612 8.71472 12.6427 8.61923 12.3536 8.56149C12.0644 8.50375 11.7087 8.45737 11.2865 8.42266C10.864 8.38796 10.5285 8.37349 10.2797 8.3792C10.031 8.38504 9.71879 8.39075 9.3426 8.39671C8.96689 8.40254 8.73847 8.40546 8.65728 8.40546V8.4054H8.6571V8.40546ZM15.5295 20.9178C15.7029 20.7209 15.8444 20.4894 15.9546 20.2232C16.0647 19.9569 16.1196 19.6624 16.1197 19.3381C16.1197 18.9215 16.0329 18.5512 15.859 18.2273C15.6855 17.9033 15.4717 17.6376 15.2171 17.429C14.9625 17.2208 14.6297 17.0444 14.2191 16.8999C13.8081 16.7551 13.4295 16.6482 13.0825 16.5787C12.7352 16.5093 12.3071 16.4574 11.7983 16.423C11.2891 16.388 10.8898 16.3709 10.6006 16.3709C10.3114 16.3709 9.93845 16.3763 9.48131 16.388C9.02423 16.3998 8.74943 16.4055 8.65698 16.4055V22.2713C8.74961 22.2713 8.96344 22.2742 9.29914 22.2796C9.63466 22.2852 9.91238 22.2884 10.1322 22.2884C10.352 22.2884 10.6587 22.2796 11.0519 22.2626C11.4454 22.2451 11.7837 22.222 12.067 22.193C12.3507 22.1639 12.6802 22.115 13.0567 22.0456C13.4323 21.9759 13.7535 21.8954 14.0197 21.8024C14.2856 21.7099 14.5606 21.5886 14.8439 21.438C15.1272 21.2878 15.3558 21.1141 15.5295 20.9178Z" fill="white"/>
</svg>
