<svg width="257" height="335" viewBox="0 0 257 335" fill="none" xmlns="http://www.w3.org/2000/svg">
<g opacity="0.0475958">
<rect width="335" height="335" fill="#D8D8D8"/>
<mask id="mask0_0_865" style="mask-type:alpha" maskUnits="userSpaceOnUse" x="0" y="0" width="335" height="335">
<rect width="335" height="335" fill="white"/>
</mask>
<g mask="url(#mask0_0_865)">
<path fill-rule="evenodd" clip-rule="evenodd" d="M112.978 -298.77L97.4219 -314.327L-335.327 118.423L-319.771 133.979L112.978 -298.77ZM362.587 -49.1616L347.031 -64.718L-85.7188 368.031L-70.1624 383.588L362.587 -49.1616ZM390.429 -21.3193L374.873 -36.8756L-57.8764 395.874L-42.3201 411.43L390.429 -21.3193ZM402.715 -9.03331L418.272 6.52304L-14.4778 439.272L-30.0341 423.716L402.715 -9.03331ZM446.114 34.3654L430.558 18.809L-2.19179 451.558L13.3646 467.115L446.114 34.3654ZM458.4 46.6513L473.956 62.2077L41.2069 494.957L25.6505 479.401L458.4 46.6513ZM501.799 90.05L486.242 74.4937L53.4929 507.243L69.0492 522.799L501.799 90.05ZM514.085 102.336L529.641 117.892L96.8915 550.642L81.3352 535.085L514.085 102.336ZM557.483 145.735L541.927 130.178L109.178 562.928L124.734 578.484L557.483 145.735ZM569.769 158.021L585.326 173.577L152.576 606.326L137.02 590.77L569.769 158.021ZM125.264 -286.484L140.821 -270.928L-291.929 161.821L-307.485 146.265L125.264 -286.484ZM168.663 -243.086L153.107 -258.642L-279.643 174.107L-264.086 189.664L168.663 -243.086ZM180.949 -230.8L196.505 -215.243L-236.244 217.506L-251.8 201.95L180.949 -230.8ZM224.348 -187.401L208.791 -202.957L-223.958 229.792L-208.402 245.348L224.348 -187.401ZM236.634 -175.115L252.19 -159.559L-180.559 273.191L-196.116 257.634L236.634 -175.115ZM280.032 -131.716L264.476 -147.273L-168.273 285.477L-152.717 301.033L280.032 -131.716ZM292.318 -119.43L307.875 -103.874L-124.875 328.875L-140.431 313.319L292.318 -119.43ZM335.717 -76.0317L320.161 -91.588L-112.589 341.161L-97.0325 356.718L335.717 -76.0317Z" fill="#3E4983"/>
</g>
</g>
</svg>
