<svg width="26" height="25" viewBox="0 0 26 25" fill="none" xmlns="http://www.w3.org/2000/svg">
<g opacity="0.5">
<path fill-rule="evenodd" clip-rule="evenodd" d="M4.50683 3.98062C6.70928 1.77818 9.62543 0.549419 12.7336 0.508345C12.7878 0.503431 12.8415 0.5 12.8943 0.5C12.947 0.5 13.0008 0.503431 13.0549 0.508345C16.1631 0.549373 19.0793 1.77813 21.2817 3.98058C23.522 6.22099 24.7559 9.19968 24.7559 12.368C24.7559 15.5363 23.522 18.515 21.2817 20.7554C19.0792 22.9578 16.1631 24.1866 13.0549 24.2276C13.0007 24.2326 12.947 24.236 12.8943 24.236C12.8415 24.236 12.7878 24.2325 12.7336 24.2276C9.62538 24.1866 6.70923 22.9578 4.50683 20.7554C2.26651 18.5151 1.0327 15.5364 1.0327 12.368C1.03265 9.19968 2.26646 6.22099 4.50683 3.98062ZM20.2846 4.97772C19.0245 3.71763 17.499 2.8196 15.8344 2.3344C16.2096 2.76633 16.5743 3.26312 16.9138 3.81364C17.3467 4.5158 17.7216 5.27683 18.0355 6.08149H21.2452C20.9531 5.69518 20.633 5.32611 20.2846 4.97772ZM18.5103 7.49161H22.1436C22.8214 8.77354 23.2242 10.1885 23.3218 11.6629H19.1668C19.1115 10.2226 18.8881 8.81388 18.5103 7.49161ZM22.1435 17.2444C22.8215 15.9625 23.2243 14.5475 23.3219 13.0731H19.1668C19.1116 14.5135 18.8881 15.9222 18.5103 17.2444H22.1435ZM21.2452 18.6545C20.9532 19.0409 20.633 19.4099 20.2845 19.7583C19.0244 21.0184 17.4989 21.9164 15.8344 22.4016C16.2096 21.9697 16.5743 21.4729 16.9137 20.9224C17.3467 20.2202 17.7216 19.4592 18.0355 18.6545H21.2452ZM13.5994 18.6546V22.5356C14.1868 22.1513 14.9756 21.3792 15.7136 20.1823C16.0096 19.7023 16.2756 19.191 16.5108 18.6546H13.5994ZM17.039 17.2444H13.5994V13.0731H17.7557C17.6956 14.5254 17.451 15.9379 17.039 17.2444ZM13.5994 11.6629H17.7557C17.6956 10.2106 17.4511 8.79807 17.039 7.49161H13.5994V11.6629ZM16.5108 6.08145H13.5994H13.5993V2.20033C14.1867 2.5846 14.9755 3.35681 15.7135 4.55372C16.0095 5.03372 16.2756 5.54498 16.5108 6.08145ZM3.64496 7.49161C2.96705 8.77359 2.56428 10.1885 2.46669 11.6629H6.6218C6.67701 10.2225 6.90046 8.81383 7.27829 7.49161H3.64496ZM4.54332 6.08149C4.83538 5.69518 5.15554 5.32611 5.50393 4.97772C6.76407 3.71763 8.28953 2.8196 9.95407 2.3344C9.57883 2.76633 9.21417 3.26312 8.87473 3.81364C8.44173 4.5158 8.06691 5.27683 7.75301 6.08149H4.54332ZM12.1892 2.20033L12.1892 2.20036V6.08145H9.27773C9.51291 5.54498 9.77897 5.03372 10.075 4.55372C10.813 3.35684 11.6017 2.58469 12.1892 2.20036V2.20033H12.1892ZM8.74956 7.49161H12.1892V11.6629H8.03289C8.09292 10.2107 8.33747 8.79811 8.74956 7.49161ZM8.03293 13.0731C8.09297 14.5254 8.33751 15.9379 8.7496 17.2444H12.1892V13.0731H8.03293ZM12.1892 18.6546V22.5357C11.6018 22.1514 10.813 21.3792 10.075 20.1823C9.77901 19.7023 9.51296 19.191 9.27778 18.6546H12.1892ZM5.50393 19.7583C6.76407 21.0184 8.28949 21.9164 9.95407 22.4017C9.57888 21.9697 9.21417 21.4729 8.87473 20.9224C8.44178 20.2203 8.06691 19.4592 7.75301 18.6546H4.54332C4.83533 19.0409 5.15554 19.4099 5.50393 19.7583ZM7.27829 17.2444H3.64496C2.96714 15.9625 2.56432 14.5475 2.46674 13.0731H6.6218C6.67696 14.5135 6.90046 15.9222 7.27829 17.2444Z" fill="white"/>
<path d="M12.7336 0.508345L12.7562 0.757322L12.7466 0.758195L12.7369 0.758323L12.7336 0.508345ZM4.50683 3.98062L4.33005 3.80385L4.50683 3.98062ZM13.0549 0.508345L13.0516 0.758323L13.0419 0.758195L13.0323 0.757322L13.0549 0.508345ZM21.2817 3.98058L21.4585 3.8038L21.4585 3.8038L21.2817 3.98058ZM21.2817 20.7554L21.1049 20.5786L21.2817 20.7554ZM13.0549 24.2276L13.0321 23.9787L13.0418 23.9778L13.0516 23.9776L13.0549 24.2276ZM12.7336 24.2276L12.7369 23.9776L12.7466 23.9778L12.7562 23.9786L12.7336 24.2276ZM4.50683 20.7554L4.68361 20.5786L4.68361 20.5786L4.50683 20.7554ZM1.0327 12.368L1.2827 12.368V12.368H1.0327ZM15.8344 2.3344L15.6457 2.49834L15.0881 1.85646L15.9044 2.09439L15.8344 2.3344ZM20.2846 4.97772L20.4614 4.80095V4.80095L20.2846 4.97772ZM16.9138 3.81364L16.701 3.94485L16.701 3.94485L16.9138 3.81364ZM18.0355 6.08149V6.33149H17.8647L17.8026 6.17235L18.0355 6.08149ZM21.2452 6.08149L21.4446 5.93073L21.7476 6.33149H21.2452V6.08149ZM22.1436 7.49161V7.24161H22.2942L22.3646 7.37475L22.1436 7.49161ZM18.5103 7.49161L18.2699 7.5603L18.1788 7.24161H18.5103V7.49161ZM23.3218 11.6629L23.5713 11.6464L23.5889 11.9129H23.3218V11.6629ZM19.1668 11.6629V11.9129H18.9262L18.9169 11.6725L19.1668 11.6629ZM23.3219 13.0731V12.8231H23.589L23.5713 13.0896L23.3219 13.0731ZM22.1435 17.2444L22.3646 17.3613L22.2941 17.4944H22.1435V17.2444ZM19.1668 13.0731L18.917 13.0635L18.9262 12.8231H19.1668V13.0731ZM18.5103 17.2444V17.4944H18.1789L18.2699 17.1757L18.5103 17.2444ZM20.2845 19.7583L20.1078 19.5815L20.1078 19.5815L20.2845 19.7583ZM21.2452 18.6545V18.4045H21.7475L21.4446 18.8053L21.2452 18.6545ZM15.8344 22.4016L15.9044 22.6416L15.0881 22.8796L15.6457 22.2377L15.8344 22.4016ZM16.9137 20.9224L16.7009 20.7912L16.7009 20.7911L16.9137 20.9224ZM18.0355 18.6545L17.8025 18.5637L17.8646 18.4045H18.0355V18.6545ZM13.5994 22.5356L13.7363 22.7448L13.3494 22.998V22.5356H13.5994ZM13.5994 18.6546H13.3494V18.4046H13.5994V18.6546ZM15.7136 20.1823L15.5008 20.0511L15.5008 20.0511L15.7136 20.1823ZM16.5108 18.6546V18.4046H16.8934L16.7398 18.7549L16.5108 18.6546ZM13.5994 17.2444V17.4944H13.3494V17.2444H13.5994ZM17.039 17.2444L17.2774 17.3196L17.2223 17.4944H17.039V17.2444ZM13.5994 13.0731H13.3494V12.8231H13.5994V13.0731ZM17.7557 13.0731V12.8231H18.0162L18.0055 13.0834L17.7557 13.0731ZM17.7557 11.6629L18.0055 11.6526L18.0162 11.9129H17.7557V11.6629ZM13.5994 11.6629V11.9129H13.3494V11.6629H13.5994ZM17.039 7.49161V7.24161H17.2223L17.2774 7.41641L17.039 7.49161ZM13.5994 7.49161H13.3494V7.24161H13.5994V7.49161ZM16.5108 6.08145L16.7397 5.98107L16.8933 6.33145H16.5108V6.08145ZM13.5993 6.08145V6.33145H13.3493V6.08145H13.5993ZM13.5993 2.20033H13.3493V1.73804L13.7362 1.99112L13.5993 2.20033ZM15.7135 4.55372L15.5007 4.68494L15.5007 4.68493L15.7135 4.55372ZM2.46669 11.6629V11.9129H2.19959L2.21723 11.6464L2.46669 11.6629ZM3.64496 7.49161L3.42396 7.37474L3.49436 7.24161H3.64496V7.49161ZM6.6218 11.6629L6.87161 11.6725L6.8624 11.9129H6.6218V11.6629ZM7.27829 7.49161V7.24161H7.60974L7.51867 7.5603L7.27829 7.49161ZM5.50393 4.97772L5.32715 4.80095L5.32716 4.80094L5.50393 4.97772ZM4.54332 6.08149V6.33149H4.0409L4.34389 5.93073L4.54332 6.08149ZM9.95407 2.3344L9.88411 2.09439L10.7005 1.85643L10.1428 2.49835L9.95407 2.3344ZM8.87473 3.81364L9.08753 3.94485L9.08752 3.94486L8.87473 3.81364ZM7.75301 6.08149L7.98592 6.17235L7.92384 6.33149H7.75301V6.08149ZM12.1892 2.20033V1.95033H13.0292L12.3259 2.40964L12.1892 2.20033ZM12.1892 6.08145H12.4392V6.33145H12.1892V6.08145ZM9.27773 6.08145V6.33145H8.89517L9.04877 5.98107L9.27773 6.08145ZM10.075 4.55372L10.2878 4.68493L10.2878 4.68494L10.075 4.55372ZM12.1892 2.20033H11.9392V1.95033H12.1892V2.20033ZM12.1892 7.49161V7.24161H12.4392V7.49161H12.1892ZM8.74956 7.49161L8.51114 7.41641L8.56627 7.24161H8.74956V7.49161ZM12.1892 11.6629H12.4392V11.9129H12.1892V11.6629ZM8.03289 11.6629V11.9129H7.77234L7.7831 11.6526L8.03289 11.6629ZM8.7496 17.2444V17.4944H8.56632L8.51118 17.3196L8.7496 17.2444ZM8.03293 13.0731L7.78315 13.0834L7.77238 12.8231H8.03293V13.0731ZM12.1892 17.2444H12.4392V17.4944H12.1892V17.2444ZM12.1892 13.0731V12.8231H12.4392V13.0731H12.1892ZM12.1892 22.5357H12.4392V22.998L12.0523 22.7449L12.1892 22.5357ZM12.1892 18.6546V18.4046H12.4392V18.6546H12.1892ZM10.075 20.1823L10.2878 20.0511L10.2878 20.0511L10.075 20.1823ZM9.27778 18.6546L9.04881 18.7549L8.89521 18.4046H9.27778V18.6546ZM9.95407 22.4017L10.1428 22.2377L10.7004 22.8796L9.8841 22.6417L9.95407 22.4017ZM5.50393 19.7583L5.32716 19.9351L5.32715 19.9351L5.50393 19.7583ZM8.87473 20.9224L9.08753 20.7912L9.08753 20.7912L8.87473 20.9224ZM7.75301 18.6546V18.4046H7.92384L7.98592 18.5637L7.75301 18.6546ZM4.54332 18.6546L4.34388 18.8053L4.04095 18.4046H4.54332V18.6546ZM3.64496 17.2444V17.4944H3.49435L3.42395 17.3612L3.64496 17.2444ZM7.27829 17.2444L7.51867 17.1757L7.60974 17.4944H7.27829V17.2444ZM2.46674 13.0731L2.21728 13.0896L2.19964 12.8231H2.46674V13.0731ZM6.6218 13.0731V12.8231H6.8624L6.87161 13.0635L6.6218 13.0731ZM12.7369 0.758323C9.69386 0.798537 6.83996 2.00105 4.68361 4.1574L4.33005 3.80385C6.57859 1.55531 9.557 0.300302 12.7303 0.258367L12.7369 0.758323ZM12.8943 0.75C12.8519 0.75 12.8064 0.752768 12.7562 0.757322L12.711 0.259368C12.7692 0.254093 12.8311 0.25 12.8943 0.25V0.75ZM13.0323 0.757322C12.9821 0.752768 12.9366 0.75 12.8943 0.75V0.25C12.9574 0.25 13.0194 0.254093 13.0775 0.259368L13.0323 0.757322ZM21.105 4.15735C18.9486 2.001 16.0947 0.798491 13.0516 0.758323L13.0582 0.258366C16.2316 0.300254 19.21 1.55526 21.4585 3.8038L21.105 4.15735ZM24.5059 12.368C24.5059 9.26598 23.2984 6.35088 21.1049 4.15735L21.4585 3.8038C23.7457 6.0911 25.0059 9.13337 25.0059 12.368H24.5059ZM21.1049 20.5786C23.2984 18.3851 24.5059 15.47 24.5059 12.368H25.0059C25.0059 15.6026 23.7457 18.6449 21.4585 20.9322L21.1049 20.5786ZM13.0516 23.9776C16.0947 23.9375 18.9486 22.735 21.1049 20.5786L21.4585 20.9322C19.2099 23.1807 16.2316 24.4357 13.0582 24.4776L13.0516 23.9776ZM12.8943 23.986C12.9367 23.986 12.9822 23.9832 13.0321 23.9787L13.0777 24.4766C13.0192 24.4819 12.9573 24.486 12.8943 24.486V23.986ZM12.7562 23.9786C12.8064 23.9832 12.8519 23.986 12.8943 23.986V24.486C12.8311 24.486 12.7692 24.4819 12.7111 24.4766L12.7562 23.9786ZM4.68361 20.5786C6.83991 22.735 9.69381 23.9375 12.7369 23.9776L12.7303 24.4776C9.55695 24.4357 6.57855 23.1807 4.33005 20.9322L4.68361 20.5786ZM1.2827 12.368C1.2827 15.4701 2.49017 18.3852 4.68361 20.5786L4.33005 20.9322C2.04285 18.645 0.782698 15.6027 0.782698 12.368H1.2827ZM4.68361 4.1574C2.49012 6.35088 1.28265 9.26598 1.2827 12.368L0.782698 12.368C0.78265 9.13338 2.0428 6.0911 4.33005 3.80385L4.68361 4.1574ZM15.9044 2.09439C17.6095 2.59139 19.1717 3.51124 20.4614 4.80095L20.1078 5.1545C18.8773 3.92401 17.3886 3.0478 15.7645 2.57441L15.9044 2.09439ZM16.701 3.94485C16.3682 3.40507 16.0114 2.91934 15.6457 2.49834L16.0232 2.17045C16.4079 2.61332 16.7805 3.12117 17.1266 3.68243L16.701 3.94485ZM17.8026 6.17235C17.4938 5.38066 17.1255 4.63326 16.701 3.94485L17.1266 3.68242C17.568 4.39833 17.9494 5.173 18.2684 5.99064L17.8026 6.17235ZM21.2452 6.33149H18.0355V5.83149H21.2452V6.33149ZM20.4614 4.80095C20.818 5.15762 21.1457 5.5354 21.4446 5.93073L21.0458 6.23226C20.7605 5.85497 20.4479 5.49461 20.1078 5.1545L20.4614 4.80095ZM22.1436 7.74161H18.5103V7.24161H22.1436V7.74161ZM23.0724 11.6795C22.9771 10.24 22.5839 8.85919 21.9226 7.60847L22.3646 7.37475C23.0589 8.68789 23.4714 10.1371 23.5713 11.6464L23.0724 11.6795ZM19.1668 11.4129H23.3218V11.9129H19.1668V11.4129ZM18.7506 7.42292C19.1342 8.76506 19.3606 10.1936 19.4166 11.6534L18.9169 11.6725C18.8625 10.2515 18.642 8.8627 18.2699 7.5603L18.7506 7.42292ZM23.5713 13.0896C23.4714 14.5989 23.059 16.0481 22.3646 17.3613L21.9225 17.1275C22.584 15.8768 22.9771 14.496 23.0724 13.0565L23.5713 13.0896ZM19.1668 12.8231H23.3219V13.3231H19.1668V12.8231ZM18.2699 17.1757C18.6421 15.8734 18.8625 14.4846 18.917 13.0635L19.4166 13.0826C19.3607 14.5424 19.1342 15.971 18.7507 17.3131L18.2699 17.1757ZM22.1435 17.4944H18.5103V16.9944H22.1435V17.4944ZM20.1078 19.5815C20.448 19.2414 20.7606 18.8811 21.0458 18.5038L21.4446 18.8053C21.1458 19.2007 20.8181 19.5784 20.4613 19.9351L20.1078 19.5815ZM15.7644 22.1616C17.3885 21.6882 18.8772 20.812 20.1078 19.5815L20.4613 19.9351C19.1716 21.2248 17.6094 22.1446 15.9044 22.6416L15.7644 22.1616ZM17.1265 21.0536C16.7805 21.6148 16.4078 22.1227 16.0231 22.5655L15.6457 22.2377C16.0113 21.8167 16.3681 21.3309 16.7009 20.7912L17.1265 21.0536ZM18.2684 18.7454C17.9494 19.563 17.568 20.3377 17.1265 21.0536L16.7009 20.7911C17.1255 20.1027 17.4937 19.3553 17.8025 18.5637L18.2684 18.7454ZM21.2452 18.9045H18.0355V18.4045H21.2452V18.9045ZM13.3494 22.5356V18.6546H13.8494V22.5356H13.3494ZM15.9264 20.3135C15.1735 21.5344 14.3608 22.3363 13.7363 22.7448L13.4625 22.3264C14.0129 21.9664 14.7776 21.2239 15.5008 20.0511L15.9264 20.3135ZM16.7398 18.7549C16.5002 19.3014 16.2289 19.823 15.9264 20.3135L15.5008 20.0511C15.7903 19.5816 16.0511 19.0807 16.2819 18.5542L16.7398 18.7549ZM13.5994 18.4046H16.5108V18.9046H13.5994V18.4046ZM13.5994 16.9944H17.039V17.4944H13.5994V16.9944ZM13.8494 13.0731V17.2444H13.3494V13.0731H13.8494ZM17.7557 13.3231H13.5994V12.8231H17.7557V13.3231ZM16.8006 17.1692C17.2057 15.8847 17.4467 14.494 17.5059 13.0627L18.0055 13.0834C17.9445 14.5567 17.6964 15.9911 17.2774 17.3196L16.8006 17.1692ZM17.7557 11.9129H13.5994V11.4129H17.7557V11.9129ZM17.2774 7.41641C17.6964 8.74483 17.9446 10.1793 18.0055 11.6526L17.5059 11.6733C17.4467 10.242 17.2057 8.8513 16.8006 7.56681L17.2774 7.41641ZM13.5994 7.24161H17.039V7.74161H13.5994V7.24161ZM13.3494 11.6629V7.49161H13.8494V11.6629H13.3494ZM13.5994 5.83145H16.5108V6.33145H13.5994V5.83145ZM13.5993 5.83145H13.5994V6.33145H13.5993V5.83145ZM13.8493 2.20033V6.08145H13.3493V2.20033H13.8493ZM15.5007 4.68493C14.7776 3.51209 14.0128 2.76954 13.4625 2.40954L13.7362 1.99112C14.3607 2.39966 15.1735 3.20153 15.9263 4.42251L15.5007 4.68493ZM16.2818 6.18182C16.051 5.65532 15.7903 5.15444 15.5007 4.68494L15.9263 4.4225C16.2288 4.91301 16.5002 5.43463 16.7397 5.98107L16.2818 6.18182ZM2.21723 11.6464C2.31713 10.1371 2.72954 8.68794 3.42396 7.37474L3.86596 7.60848C3.20456 8.85924 2.81142 10.24 2.71614 11.6795L2.21723 11.6464ZM6.6218 11.9129H2.46669V11.4129H6.6218V11.9129ZM7.51867 7.5603C7.14652 8.86265 6.92608 10.2514 6.87161 11.6725L6.37198 11.6534C6.42793 10.1936 6.65441 8.76501 7.03791 7.42292L7.51867 7.5603ZM3.64496 7.24161H7.27829V7.74161H3.64496V7.24161ZM5.68071 5.1545C5.3406 5.49461 5.02799 5.85497 4.74274 6.23226L4.34389 5.93073C4.64277 5.5354 4.97048 5.15762 5.32715 4.80095L5.68071 5.1545ZM10.024 2.57441C8.40001 3.0478 6.91124 3.92401 5.6807 5.1545L5.32716 4.80094C6.6169 3.51124 8.17906 2.59139 9.88411 2.09439L10.024 2.57441ZM8.66193 3.68243C9.00799 3.12118 9.3806 2.61332 9.76534 2.17044L10.1428 2.49835C9.77707 2.91934 9.42035 3.40506 9.08753 3.94485L8.66193 3.68243ZM7.52011 5.99064C7.83907 5.17301 8.22045 4.39834 8.66193 3.68241L9.08752 3.94486C8.66301 4.63326 8.29476 5.38066 7.98592 6.17235L7.52011 5.99064ZM4.54332 5.83149H7.75301V6.33149H4.54332V5.83149ZM12.0525 1.99104L12.0525 1.99101L12.3259 2.40964L12.3258 2.40967L12.0525 1.99104ZM11.9392 6.08145V2.20036H12.4392V6.08145H11.9392ZM9.27773 5.83145H12.1892V6.33145H9.27773V5.83145ZM10.2878 4.68494C9.99824 5.15444 9.73751 5.65532 9.50669 6.18182L9.04877 5.98107C9.28832 5.43463 9.5597 4.91301 9.86218 4.4225L10.2878 4.68494ZM12.326 2.40956C11.7757 2.76962 11.011 3.51212 10.2878 4.68493L9.86218 4.4225C10.615 3.20156 11.4278 2.39975 12.0523 1.99116L12.326 2.40956ZM12.4392 2.20033V2.20036H11.9392V2.20033H12.4392ZM12.1892 2.45033H12.1892V1.95033H12.1892V2.45033ZM12.1892 7.74161H8.74956V7.24161H12.1892V7.74161ZM11.9392 11.6629V7.49161H12.4392V11.6629H11.9392ZM8.03289 11.4129H12.1892V11.9129H8.03289V11.4129ZM8.98798 7.56681C8.58282 8.85135 8.34184 10.2421 8.28267 11.6733L7.7831 11.6526C7.844 10.1794 8.09212 8.74488 8.51114 7.41641L8.98798 7.56681ZM8.51118 17.3196C8.09216 15.9912 7.84405 14.5567 7.78315 13.0834L8.28272 13.0627C8.34188 14.494 8.58286 15.8847 8.98802 17.1692L8.51118 17.3196ZM12.1892 17.4944H8.7496V16.9944H12.1892V17.4944ZM12.4392 13.0731V17.2444H11.9392V13.0731H12.4392ZM8.03293 12.8231H12.1892V13.3231H8.03293V12.8231ZM11.9392 22.5357V18.6546H12.4392V22.5357H11.9392ZM10.2878 20.0511C11.011 21.224 11.7757 21.9664 12.3261 22.3265L12.0523 22.7449C11.4278 22.3363 10.6151 21.5345 9.86222 20.3135L10.2878 20.0511ZM9.50674 18.5542C9.73755 19.0807 9.99829 19.5816 10.2878 20.0511L9.86223 20.3135C9.55974 19.823 9.28836 19.3014 9.04881 18.7549L9.50674 18.5542ZM12.1892 18.9046H9.27778V18.4046H12.1892V18.9046ZM9.8841 22.6417C8.17901 22.1446 6.61691 21.2248 5.32716 19.9351L5.6807 19.5815C6.91124 20.812 8.39996 21.6882 10.024 22.1616L9.8841 22.6417ZM9.08753 20.7912C9.42035 21.331 9.77711 21.8167 10.1428 22.2377L9.76533 22.5656C9.38065 22.1227 9.00799 21.6149 8.66193 21.0536L9.08753 20.7912ZM7.98592 18.5637C8.29476 19.3554 8.66305 20.1028 9.08753 20.7912L8.66193 21.0536C8.2205 20.3377 7.83907 19.563 7.52011 18.7454L7.98592 18.5637ZM4.54332 18.4046H7.75301V18.9046H4.54332V18.4046ZM5.32715 19.9351C4.97049 19.5784 4.64273 19.2007 4.34388 18.8053L4.74275 18.5038C5.02794 18.8811 5.34059 19.2414 5.68071 19.5816L5.32715 19.9351ZM3.64496 16.9944H7.27829V17.4944H3.64496V16.9944ZM2.71619 13.0566C2.81146 14.496 3.20465 15.8768 3.86597 17.1275L3.42395 17.3612C2.72963 16.0481 2.31718 14.5989 2.21728 13.0896L2.71619 13.0566ZM6.6218 13.3231H2.46674V12.8231H6.6218V13.3231ZM7.03791 17.3131C6.65441 15.971 6.42789 14.5424 6.37198 13.0826L6.87161 13.0635C6.92604 14.4846 7.14652 15.8733 7.51867 17.1757L7.03791 17.3131Z" fill="white"/>
</g>
</svg>
