<svg width="28" height="19" viewBox="0 0 28 19" fill="none" xmlns="http://www.w3.org/2000/svg">
<path opacity="0.5" d="M1.58013 18.9932C1.84313 18.9932 2.10587 18.8928 2.30653 18.6922L9.79931 11.1994L13.1825 14.5826C13.5838 14.9839 14.234 14.9839 14.6353 14.5826L25.2103 4.0076V5.63699C25.2103 6.20473 25.6699 6.66438 26.2377 6.66438C26.8054 6.66438 27.2651 6.20473 27.2651 5.63699V1.5274C27.2651 1.49369 27.2632 1.45971 27.26 1.42626C27.2584 1.40941 27.2552 1.39309 27.2528 1.37677C27.2504 1.36018 27.2485 1.34359 27.2453 1.32727C27.2415 1.3072 27.2359 1.28794 27.2311 1.26841C27.2276 1.25583 27.2249 1.24299 27.2212 1.23042C27.215 1.20981 27.2075 1.19002 27.2001 1.16995C27.1958 1.15871 27.1923 1.14721 27.1877 1.13624C27.1792 1.11564 27.1693 1.09557 27.1597 1.07577C27.1548 1.0656 27.1503 1.05544 27.1452 1.04554C27.1334 1.0236 27.1206 1.00273 27.1075 0.98186C27.1029 0.974369 27.0989 0.966877 27.0941 0.959653C27.0756 0.932095 27.0561 0.90534 27.0352 0.879655C27.035 0.879388 27.035 0.87912 27.0347 0.878853C26.9903 0.82454 26.9405 0.774775 26.8862 0.730362C26.8859 0.730094 26.8857 0.730094 26.8854 0.729827C26.8597 0.708958 26.833 0.689426 26.8054 0.670965C26.7982 0.666149 26.7907 0.662136 26.7832 0.657588C26.7623 0.644478 26.7415 0.631635 26.7195 0.619863C26.7096 0.614512 26.6995 0.610231 26.6893 0.605415C26.6695 0.595516 26.6494 0.585884 26.6288 0.577322C26.6179 0.572774 26.6064 0.569296 26.5951 0.565015C26.575 0.557524 26.5553 0.550032 26.5347 0.543878C26.5221 0.540133 26.5092 0.537457 26.4967 0.533979C26.4771 0.529163 26.4579 0.523545 26.4378 0.519799C26.4215 0.516588 26.4049 0.514715 26.3883 0.512307C26.372 0.509899 26.3557 0.506689 26.3388 0.505083C26.3054 0.501873 26.2714 0.5 26.2377 0.5H22.1281C21.5603 0.5 21.1007 0.959653 21.1007 1.5274C21.1007 2.09514 21.5603 2.55479 22.1281 2.55479H23.7575L13.9089 12.4034L10.5257 9.02017C10.1244 8.61885 9.47424 8.61885 9.07291 9.02017L0.85373 17.2394C0.452403 17.6407 0.452403 18.2908 0.85373 18.6922C1.05439 18.8928 1.31713 18.9932 1.58013 18.9932Z" fill="white"/>
</svg>
