<svg width="41" height="55" viewBox="0 0 41 55" fill="none" xmlns="http://www.w3.org/2000/svg">
<path opacity="0.20845" fill-rule="evenodd" clip-rule="evenodd" d="M38.4476 28.681C37.1775 27.0386 35.2609 25.9106 32.6979 25.2974C35.9617 23.6326 37.396 20.8071 37.0022 16.8203C36.8706 15.3746 36.4711 14.1216 35.8027 13.0596C35.1339 11.9973 34.2313 11.1434 33.0916 10.4973C31.9528 9.85048 30.7143 9.35807 29.3788 9.0186C28.043 8.67912 26.5094 8.43263 24.779 8.27947V0H19.7198V8.04943C18.8438 8.04943 17.5077 8.07129 15.7119 8.11514V0H10.652V8.27947C9.92896 8.30145 8.86681 8.31261 7.46507 8.31261L0.5 8.27947V13.6678H4.14663C5.81132 13.6678 6.78601 14.4127 7.07071 15.9018V25.3314C7.29004 25.3314 7.46507 25.3427 7.5966 25.3645H7.07071V38.5716C6.89568 39.6885 6.26057 40.2474 5.16528 40.2474H1.51888L0.50023 46.26H7.07128C7.48751 46.26 8.08947 46.2655 8.87832 46.2754C9.6667 46.2864 10.2578 46.292 10.6522 46.292V54.6698H15.7129V46.3905C16.6326 46.4129 17.9686 46.4236 19.7209 46.4236V54.6698H24.7802V46.292C26.5766 46.2045 28.17 46.0411 29.5602 45.7993C30.9511 45.5575 32.2821 45.1803 33.5522 44.6652C34.8221 44.1509 35.8843 43.5098 36.7384 42.7431C37.5929 41.9772 38.2987 41.002 38.8582 39.8191C39.4158 38.6361 39.7722 37.2671 39.925 35.7117C40.211 32.6679 39.7179 30.3241 38.4476 28.681ZM15.8102 14.0282C15.9636 14.0282 16.3962 14.0227 17.1081 14.0116C17.8203 14.0003 18.4114 13.9895 18.8823 13.9785C19.3533 13.9677 19.9885 13.995 20.7883 14.0608C21.5877 14.1265 22.2612 14.2143 22.8086 14.3236C23.356 14.4329 23.9589 14.6137 24.6154 14.8656C25.273 15.1173 25.7984 15.4241 26.1921 15.7854C26.5867 16.1467 26.9207 16.6069 27.194 17.1655C27.4681 17.724 27.605 18.3646 27.605 19.0873C27.605 19.7006 27.5067 20.2593 27.3098 20.7633C27.1132 21.267 26.8168 21.6888 26.423 22.0282C26.0291 22.3678 25.6231 22.6638 25.2069 22.9155C24.7911 23.1672 24.2594 23.3699 23.6135 23.5231C22.9677 23.6765 22.4037 23.797 21.9221 23.8844C21.4402 23.9721 20.838 24.0325 20.1151 24.0652C19.3921 24.0979 18.8443 24.1202 18.4722 24.131C18.0997 24.1418 17.5906 24.1418 16.9442 24.131C16.2977 24.1202 15.9204 24.1145 15.8106 24.1145V14.0281H15.8102V14.0282ZM29.6262 36.402C29.4176 36.906 29.1497 37.3444 28.8214 37.717C28.4925 38.0887 28.0597 38.4176 27.5233 38.7019C26.9871 38.9871 26.4664 39.2166 25.963 39.3919C25.459 39.5679 24.8509 39.7203 24.1398 39.8522C23.427 39.9837 22.8032 40.0763 22.266 40.1314C21.7296 40.1863 21.0892 40.2299 20.3442 40.263C19.5998 40.2952 19.019 40.3119 18.603 40.3119C18.1868 40.3119 17.661 40.306 17.0258 40.2952C16.3902 40.285 15.9854 40.2795 15.81 40.2795V29.1741C15.985 29.1741 16.5053 29.1634 17.3707 29.1411C18.2362 29.119 18.9421 29.1087 19.4898 29.1087C20.0373 29.1087 20.7933 29.1411 21.7574 29.2072C22.7205 29.2725 23.531 29.3707 24.1887 29.5021C24.8455 29.6337 25.5623 29.836 26.3405 30.1101C27.1178 30.3838 27.7479 30.7177 28.2299 31.112C28.7118 31.5069 29.1168 32.0099 29.4452 32.6234C29.7745 33.2365 29.9387 33.9375 29.9387 34.7263C29.9385 35.3402 29.8346 35.8979 29.6262 36.402Z" fill="white"/>
</svg>
