<svg width="255" height="489" viewBox="0 0 255 489" fill="none" xmlns="http://www.w3.org/2000/svg">
<path opacity="0.0288086" fill-rule="evenodd" clip-rule="evenodd" d="M240.585 256.517C229.226 241.828 212.084 231.739 189.161 226.255C218.352 211.365 231.18 186.094 227.658 150.437C226.481 137.507 222.907 126.301 216.93 116.802C210.948 107.302 202.876 99.6639 192.682 93.8859C182.497 88.1007 171.42 83.6967 159.476 80.6605C147.529 77.6243 133.812 75.4197 118.336 74.0499V0H73.0877V71.9925C65.2523 71.9925 53.3031 72.188 37.2412 72.5801V0H-8.01333V74.0499C-14.4799 74.2464 -23.9795 74.3463 -36.5164 74.3463L-98.8105 74.0499V122.242H-66.1958C-51.3072 122.242 -42.5898 128.904 -40.0435 142.223V226.559C-38.0818 226.559 -36.5164 226.66 -35.34 226.855H-40.0435V344.977C-41.6089 354.965 -47.2891 359.964 -57.0852 359.964H-89.6979L-98.8085 413.74H-40.0383C-36.3157 413.74 -30.9319 413.789 -23.8766 413.878C-16.8255 413.976 -11.5384 414.026 -8.01128 414.026V488.956H37.2504V414.907C45.4759 415.108 57.4251 415.203 73.0969 415.203V488.956H118.346V414.026C134.413 413.244 148.664 411.782 161.098 409.62C173.538 407.457 185.442 404.084 196.801 399.477C208.16 394.876 217.659 389.143 225.298 382.286C232.941 375.435 239.253 366.714 244.257 356.134C249.245 345.553 252.432 333.31 253.799 319.398C256.357 292.175 251.946 271.212 240.585 256.517ZM38.1212 125.465C39.4931 125.465 43.3619 125.416 49.7286 125.317C56.0984 125.216 61.3855 125.119 65.597 125.021C69.8096 124.924 75.4909 125.169 82.6439 125.757C89.7939 126.344 95.8168 127.129 100.713 128.107C105.609 129.085 111.001 130.702 116.872 132.955C122.754 135.206 127.453 137.95 130.975 141.181C134.504 144.413 137.491 148.529 139.935 153.525C142.387 158.519 143.611 164.249 143.611 170.713C143.611 176.198 142.731 181.195 140.97 185.703C139.213 190.208 136.561 193.98 133.039 197.016C129.516 200.053 125.885 202.701 122.163 204.951C118.444 207.202 113.689 209.016 107.912 210.386C102.136 211.758 97.092 212.835 92.7848 213.617C88.4744 214.402 83.0885 214.942 76.623 215.234C70.1565 215.527 65.2574 215.726 61.9289 215.823C58.5974 215.92 54.0441 215.92 48.263 215.823C42.4809 215.726 39.1061 215.675 38.1243 215.675V125.464H38.1212V125.465ZM161.689 325.572C159.823 330.08 157.427 334 154.49 337.333C151.549 340.657 147.678 343.599 142.881 346.142C138.085 348.692 133.427 350.746 128.926 352.313C124.418 353.887 118.979 355.251 112.619 356.43C106.244 357.606 100.664 358.434 95.86 358.927C91.0629 359.418 85.3353 359.808 78.6722 360.104C72.0142 360.392 66.8198 360.542 63.0992 360.542C59.3765 360.542 54.674 360.488 48.9928 360.392C43.3084 360.301 39.6876 360.251 38.1191 360.251V260.927C39.6845 260.927 44.3376 260.832 52.0773 260.632C59.818 260.434 66.1322 260.343 71.0303 260.343C75.9273 260.343 82.6882 260.632 91.3109 261.224C99.9254 261.807 107.174 262.685 113.056 263.861C118.931 265.038 125.342 266.847 132.301 269.299C139.254 271.746 144.889 274.733 149.2 278.259C153.51 281.791 157.132 286.29 160.07 291.777C163.014 297.261 164.483 303.531 164.483 310.585C164.482 316.076 163.552 321.063 161.689 325.572Z" fill="url(#paint0_linear_0_1294)"/>
<defs>
<linearGradient id="paint0_linear_0_1294" x1="159.081" y1="-155.498" x2="-293.202" y2="34.9068" gradientUnits="userSpaceOnUse">
<stop stop-color="white"/>
<stop offset="1" stop-color="#1A133E"/>
</linearGradient>
</defs>
</svg>
